HIERARCHY
ROOT Hips
{
	OFFSET 0.000000 0.000000 0.000000
	CHANNELS 6 Xposition Yposition Zposition Zrotation Yrotation Xrotation 
	JOINT LHipJoint
	{
		OFFSET 0.000000 0.000000 0.000000
		CHANNELS 3 Zrotation Yrotation Xrotation
		JOINT LeftUpLeg
		{
			OFFSET 1.363060 -1.794630 0.839290
			CHANNELS 3 Zrotation Yrotation Xrotation
			JOINT LeftLeg
			{
				OFFSET 2.448110 -6.726130 0.000000
				CHANNELS 3 Zrotation Yrotation Xrotation
				JOINT LeftFoot
				{
					OFFSET 2.562200 -7.039590 0.000000
					CHANNELS 3 Zrotation Yrotation Xrotation
					JOINT LeftToeBase
					{
						OFFSET 0.157640 -0.433110 2.322550
						CHANNELS 3 Zrotation Yrotation Xrotation
						End Site
						{
							OFFSET 0.000000 0.000000 0.000000
						}
					}
				}
			}
		}
	}
	JOINT RHipJoint
	{
		OFFSET 0.000000 0.000000 0.000000
		CHANNELS 3 Zrotation Yrotation Xrotation
		JOINT RightUpLeg
		{
			OFFSET -1.305520 -1.794630 0.839290
			CHANNELS 3 Zrotation Yrotation Xrotation
			JOINT RightLeg
			{
				OFFSET -2.542530 -6.985550 0.000000
				CHANNELS 3 Zrotation Yrotation Xrotation
				JOINT RightFoot
				{
					OFFSET -2.568260 -7.056230 0.000000
					CHANNELS 3 Zrotation Yrotation Xrotation
					JOINT RightToeBase
					{
						OFFSET -0.164730 -0.452590 2.363150
						CHANNELS 3 Zrotation Yrotation Xrotation
						End Site
						{
							OFFSET 0.000000 0.000000 0.000000
						}
					}
				}
			}
		}
	}
	JOINT LowerBack
	{
		OFFSET 0.000000 0.000000 0.000000
		CHANNELS 3 Zrotation Yrotation Xrotation
		JOINT Spine
		{
			OFFSET 0.028270 2.035590 -0.193380
			CHANNELS 3 Zrotation Yrotation Xrotation
			JOINT Spine1
			{
				OFFSET 0.056720 2.048850 -0.042750
				CHANNELS 3 Zrotation Yrotation Xrotation
				JOINT Neck
				{
					OFFSET 0.000000 0.000000 0.000000
					CHANNELS 3 Zrotation Yrotation Xrotation
					JOINT Neck1
					{
						OFFSET -0.054170 1.746240 0.172020
						CHANNELS 3 Zrotation Yrotation Xrotation
						JOINT Head
						{
							OFFSET 0.104070 1.761360 -0.123970
							CHANNELS 3 Zrotation Yrotation Xrotation
							End Site
							{
								OFFSET 0.000000 0.000000 0.000000
							}
						}
					}
				}
				JOINT LeftShoulder
				{
					OFFSET 0.000000 0.000000 0.000000
					CHANNELS 3 Zrotation Yrotation Xrotation
					JOINT LeftArm
					{
						OFFSET 3.362410 1.200890 -0.311210
						CHANNELS 3 Zrotation Yrotation Xrotation
						JOINT LeftForeArm
						{
							OFFSET 4.983000 -0.000000 -0.000000
							CHANNELS 3 Zrotation Yrotation Xrotation
							JOINT LeftHand
							{
								OFFSET 3.483560 -0.000000 -0.000000
								CHANNELS 3 Zrotation Yrotation Xrotation
								JOINT LeftFingerBase
								{
									OFFSET 0.000000 0.000000 0.000000
									CHANNELS 3 Zrotation Yrotation Xrotation
									JOINT LeftHandIndex1
									{
										OFFSET 0.715260 -0.000000 -0.000000
										CHANNELS 3 Zrotation Yrotation Xrotation
										End Site
										{
											OFFSET 0.000000 0.000000 0.000000
										}
									}
								}
								JOINT LThumb
								{
									OFFSET 0.000000 0.000000 0.000000
									CHANNELS 3 Zrotation Yrotation Xrotation
									End Site
									{
										OFFSET 0.000000 0.000000 0.000000
									}
								}
							}
						}
					}
				}
				JOINT RightShoulder
				{
					OFFSET 0.000000 0.000000 0.000000
					CHANNELS 3 Zrotation Yrotation Xrotation
					JOINT RightArm
					{
						OFFSET -3.136600 1.374050 -0.404650
						CHANNELS 3 Zrotation Yrotation Xrotation
						JOINT RightForeArm
						{
							OFFSET -5.241900 -0.000000 -0.000000
							CHANNELS 3 Zrotation Yrotation Xrotation
							JOINT RightHand
							{
								OFFSET -3.444170 -0.000000 -0.000000
								CHANNELS 3 Zrotation Yrotation Xrotation
								JOINT RightFingerBase
								{
									OFFSET 0.000000 0.000000 0.000000
									CHANNELS 3 Zrotation Yrotation Xrotation
									JOINT RightHandIndex1
									{
										OFFSET -0.622530 -0.000000 -0.000000
										CHANNELS 3 Zrotation Yrotation Xrotation
										End Site
										{
											OFFSET 0.000000 0.000000 0.000000
										}
									}
								}
								JOINT RThumb
								{
									OFFSET 0.000000 0.000000 0.000000
									CHANNELS 3 Zrotation Yrotation Xrotation
									End Site
									{
										OFFSET 0.000000 0.000000 0.000000
									}
								}
							}
						}
					}
				}
			}
		}
	}
}
MOTION
Frames: 8
Frame Time: 0.008333
-21.425737 16.129187 -0.798519 16.791403 84.962418 28.350875 -9.613061 -0.342445 2.576674 -12.845009 -1.262363 -49.332821 -1.142243 2.110400 46.802331 1.587439 6.548837 -11.841682 -0.447400 0.000000 -14.170300 10.276430 -4.726470 0.106510 1.958209 -5.647812 7.684811 1.886362 -1.940710 25.454246 0.833876 9.570401 -2.949509 0.531800 -0.000000 -74.962100 -8.569174 1.809218 -4.216394 -2.585959 2.290269 -3.984005 -5.795724 2.155643 0.013057 9.161249 -2.658199 -9.235510 -3.022934 -0.215154 -0.518649 0.000000 0.000000 0.000000 -4.326170 18.347581 2.942415 -56.385547 19.162022 -2.748348 -4.949917 -7.796622 -0.004068 2.763396 2.835862 0.072935 -0.131508 -0.057506 -0.000000 0.000000 0.000000 0.000000 0.000000 0.000000 0.000000 12.342400 5.882877 1.438308 55.730766 35.927068 32.024719 1.290223 61.539915 0.011430 0.858473 7.645183 0.059479 0.026805 -0.372491 -0.000000 0.000000 0.000000 0.000000 0.000000 0.000000 0.000000 
-21.279723 16.119683 -0.821364 17.802619 84.743100 29.060877 -9.595664 -0.273901 2.440576 -13.262408 -0.978096 -48.626724 -1.163634 2.123181 47.490684 1.638170 6.674671 -12.878006 -0.618200 0.000000 -14.210900 10.500492 -4.818790 0.010163 0.992487 -6.280706 6.413329 1.634160 -2.267648 28.710995 0.873675 10.458339 -1.056593 0.879500 -0.000000 -77.234100 -8.743233 1.809141 -4.041483 -2.643199 2.304093 -3.987547 -5.923601 2.168458 -0.108889 9.334723 -2.446167 -9.158142 -3.119507 -0.223447 -0.504783 0.000000 0.000000 0.000000 -4.666969 18.185019 2.923915 -56.310244 17.745602 -3.260993 -4.911051 -6.787823 -0.002875 3.249738 2.511930 0.075345 -0.125028 -0.051435 -0.000000 0.000000 0.000000 0.000000 0.000000 0.000000 0.000000 12.798224 6.150203 1.392194 56.908344 34.350897 31.620163 1.363357 60.256929 0.011304 0.756648 7.738884 0.052714 0.030381 -0.367491 -0.000000 0.000000 0.000000 0.000000 0.000000 0.000000 0.000000 
-21.136740 16.109525 -0.844502 18.907457 84.513568 29.894578 -9.566002 -0.200305 2.310623 -13.706374 -0.718599 -47.932381 -1.187347 2.131517 48.119376 1.697466 6.838919 -13.898375 -0.795299 -0.000000 -14.265700 10.742209 -4.888283 -0.073236 0.016527 -6.888222 4.975674 1.347585 -2.577057 32.117701 0.871098 11.270277 0.994541 1.321100 0.000000 -78.809899 -8.911428 1.796004 -3.880849 -2.697450 2.304194 -3.994549 -6.049086 2.166470 -0.237510 9.493750 -2.218753 -9.060389 -3.217051 -0.232025 -0.485160 0.000000 0.000000 0.000000 -5.005298 17.953164 2.905635 -56.287606 16.351052 -3.665356 -4.868962 -5.841094 -0.001854 3.720625 2.195727 0.074956 -0.118112 -0.045628 -0.000000 0.000000 0.000000 0.000000 0.000000 0.000000 0.000000 13.247779 6.409329 1.345792 58.111579 32.784975 31.087915 1.438270 58.810320 0.011169 0.672742 7.830551 0.047140 0.033077 -0.361625 0.000000 0.000000 0.000000 0.000000 0.000000 0.000000 0.000000 
-20.996867 16.098719 -0.867680 20.088752 84.281862 30.836302 -9.524214 -0.123049 2.187683 -14.171825 -0.487968 -47.261806 -1.211631 2.136851 48.698911 1.763802 7.034917 -14.889287 -0.977700 0.000000 -14.306400 10.995194 -4.928026 -0.143783 -0.936971 -7.444726 3.405482 1.035582 -2.862520 35.621315 0.822288 11.935830 3.153576 1.840300 -0.000000 -79.537900 -9.071686 1.768050 -3.733607 -2.747894 2.288745 -4.005126 -6.171261 2.147652 -0.375807 9.636543 -1.972278 -8.938623 -3.314722 -0.240854 -0.458717 0.000000 0.000000 0.000000 -5.336301 17.628075 2.890468 -56.324298 15.010603 -3.939122 -4.825314 -4.992450 -0.001041 4.162862 1.904127 0.072468 -0.110956 -0.040114 -0.000000 0.000000 0.000000 0.000000 0.000000 0.000000 0.000000 13.684721 6.661494 1.301667 59.344051 31.229883 30.393307 1.514791 57.193995 0.011048 0.614939 7.919478 0.043256 0.034773 -0.354899 -0.000000 0.000000 0.000000 0.000000 0.000000 0.000000 0.000000 
-20.860831 16.087434 -0.890317 21.409966 84.058112 31.947350 -9.466130 -0.043011 2.071601 -14.664351 -0.295045 -46.613555 -1.235526 2.138680 49.231371 1.835655 7.256185 -15.839080 -1.164200 0.000001 -14.306400 11.259559 -4.933263 -0.205133 -1.856718 -7.946116 1.733910 0.710608 -3.122082 39.175538 0.729467 12.397898 5.341665 2.400200 -0.000000 -79.332600 -9.231412 1.721264 -3.594270 -2.795828 2.254392 -4.016184 -6.289516 2.108840 -0.517198 9.769085 -1.720647 -8.799645 -3.411916 -0.249768 -0.427567 0.000000 0.000000 0.000000 -5.645902 17.215886 2.880115 -56.424725 13.707215 -4.043899 -4.780809 -4.252888 -0.000458 4.569290 1.650535 0.068679 -0.103718 -0.034790 -0.000000 0.000000 0.000000 0.000000 0.000000 0.000000 0.000000 14.118148 6.889205 1.262336 60.600315 29.716606 29.520270 1.592575 55.400721 0.010917 0.575605 8.007133 0.040760 0.035640 -0.347345 -0.000000 0.000000 0.000000 0.000000 0.000000 0.000000 0.000000 
-20.728491 16.076035 -0.912300 22.827235 83.847532 33.176656 -9.394270 0.039588 1.961190 -15.174002 -0.136347 -45.982170 -1.258800 2.138269 49.718322 1.910111 7.488997 -16.741113 -1.352800 -0.000000 -14.249599 11.527230 -4.900455 -0.262768 -2.720806 -8.387149 -0.000132 0.385141 -3.356709 42.735046 0.599013 12.592344 7.466164 2.942501 0.000000 -78.211000 -9.385395 1.656138 -3.454655 -2.840167 2.201209 -4.026274 -6.403919 2.050121 -0.662874 9.891715 -1.463862 -8.643440 -3.508353 -0.258721 -0.391762 0.000000 0.000000 0.000000 -5.931575 16.705393 2.876685 -56.589365 12.454200 -3.955114 -4.736656 -3.650699 -0.000120 4.930302 1.451207 0.064891 -0.096600 -0.029603 -0.000000 0.000000 0.000000 0.000000 0.000000 0.000000 0.000000 14.546826 7.091724 1.230302 61.879171 28.248761 28.432206 1.670633 53.431280 0.010737 0.547846 8.098688 0.039056 0.035777 -0.339091 -0.000000 0.000000 0.000000 0.000000 0.000000 0.000000 0.000000 
-20.600169 16.065019 -0.933467 24.327980 83.653951 34.502920 -9.310067 0.125032 1.854438 -15.694505 -0.007604 -45.353196 -1.282045 2.135935 50.154275 1.984304 7.720080 -17.591041 -1.540600 0.000000 -14.126500 11.793320 -4.829152 -0.322683 -3.519465 -8.772227 -1.764045 0.069403 -3.570805 46.263388 0.440287 12.464972 9.421556 3.395400 -0.000001 -76.308800 -9.531615 1.572986 -3.305615 -2.880615 2.129292 -4.033472 -6.514796 1.971706 -0.812267 10.006742 -1.204365 -8.471885 -3.603921 -0.267654 -0.351949 0.000000 0.000000 0.000000 -6.190408 16.094477 2.881601 -56.814803 11.252181 -3.652109 -4.693631 -3.205367 -0.000020 5.240021 1.316319 0.062303 -0.089780 -0.024479 -0.000000 0.000000 0.000000 0.000000 0.000000 0.000000 0.000000 14.973255 7.265933 1.207632 63.176221 26.834481 27.096946 1.747158 51.291819 0.010438 0.513397 8.199775 0.036942 0.035416 -0.330305 -0.000000 0.000000 0.000000 0.000000 0.000000 0.000000 0.000000 
-20.475705 16.055039 -0.953846 25.889230 83.478119 35.893910 -9.216077 0.213801 1.749167 -16.218498 0.098411 -44.709930 -1.306394 2.131907 50.529159 2.055686 7.937952 -18.386420 -1.724599 -0.000000 -13.937700 12.053146 -4.721132 -0.390219 -4.247544 -9.108774 -3.531602 -0.231006 -3.770359 49.731654 0.262644 11.970789 11.109598 3.686900 -0.000000 -73.868700 -9.666795 1.473043 -3.139026 -2.916769 2.039520 -4.036135 -6.622760 1.874609 -0.964562 10.116633 -0.944333 -8.287459 -3.698681 -0.276517 -0.308917 0.000000 0.000000 0.000000 -6.422079 15.386178 2.895509 -57.092537 10.097808 -3.121144 -4.652124 -2.932266 -0.000136 5.495789 1.251938 0.061816 -0.083412 -0.019352 -0.000000 0.000000 0.000000 0.000000 0.000000 0.000000 0.000000 15.400586 7.409745 1.196059 64.483558 25.479929 25.485630 1.819440 48.995382 0.009925 0.445948 8.317697 0.032319 0.034839 -0.321187 -0.000000 0.000000 0.000000 0.000000 0.000000 0.000000 0.000000 
